name rise32.9588peak41.5061fall63.4684.mot
datacolumns 19
datarows 24
range 10.45996500000000 10.49829500000000
endheader
time	ground_force1_vx	ground_force1_vy	ground_force1_vz	ground_force1_px	ground_force1_py	ground_force1_pz	ground_force2_vx	ground_force2_vy	ground_force2_vz	ground_force2_px	ground_force2_py	ground_force2_pz	ground_torque1_x	ground_torque1_y	ground_torque1_z	ground_torque2_x	ground_torque2_y	ground_torque2_z	
10.45996500000000	50.24371900000000	753.45571600000005	53.66556500000000	0.28512400000000	0.00000000000000	0.11338200000000	0.00000000000000	0.00000000000000	0.00000000000000	0.00000000000000	0.00000000000000	0.00000000000000	0.00000000000000	19.01170600000000	0.00000000000000	0.00000000000000	0.00000000000000	0.00000000000000	
10.46162600000000	49.69083600000000	756.01694299999997	53.78955100000000	0.28414100000000	0.00000000000000	0.11334700000000	0.00000000000000	0.00000000000000	0.00000000000000	0.00000000000000	0.00000000000000	0.00000000000000	0.00000000000000	19.07631000000000	0.00000000000000	0.00000000000000	0.00000000000000	0.00000000000000	
10.46329900000000	49.14194600000000	758.46690100000001	53.90560400000000	0.28318500000000	0.00000000000000	0.11331100000000	0.00000000000000	0.00000000000000	0.00000000000000	0.00000000000000	0.00000000000000	0.00000000000000	0.00000000000000	19.13746600000000	0.00000000000000	0.00000000000000	0.00000000000000	0.00000000000000	
10.46496100000000	48.59781200000000	760.80435599999998	54.01368500000000	0.28225800000000	0.00000000000000	0.11327200000000	0.00000000000000	0.00000000000000	0.00000000000000	0.00000000000000	0.00000000000000	0.00000000000000	0.00000000000000	19.19510500000000	0.00000000000000	0.00000000000000	0.00000000000000	0.00000000000000	
10.46663100000000	48.05910200000000	763.02809400000001	54.11371900000000	0.28135700000000	0.00000000000000	0.11323100000000	0.00000000000000	0.00000000000000	0.00000000000000	0.00000000000000	0.00000000000000	0.00000000000000	0.00000000000000	19.24914200000000	0.00000000000000	0.00000000000000	0.00000000000000	0.00000000000000	
10.46829400000000	47.52638600000000	765.13693699999999	54.20559500000000	0.28048200000000	0.00000000000000	0.11318800000000	0.00000000000000	0.00000000000000	0.00000000000000	0.00000000000000	0.00000000000000	0.00000000000000	0.00000000000000	19.29947900000000	0.00000000000000	0.00000000000000	0.00000000000000	0.00000000000000	
10.46995900000000	47.00014400000000	767.12975200000005	54.28917000000000	0.27963300000000	0.00000000000000	0.11314400000000	0.00000000000000	0.00000000000000	0.00000000000000	0.00000000000000	0.00000000000000	0.00000000000000	0.00000000000000	19.34600500000000	0.00000000000000	0.00000000000000	0.00000000000000	0.00000000000000	
10.47162600000000	46.48076000000000	769.00546599999996	54.36427200000000	0.27880800000000	0.00000000000000	0.11309700000000	0.00000000000000	0.00000000000000	0.00000000000000	0.00000000000000	0.00000000000000	0.00000000000000	0.00000000000000	19.38860000000000	0.00000000000000	0.00000000000000	0.00000000000000	0.00000000000000	
10.47329000000000	45.96853200000000	770.76307499999996	54.43070800000000	0.27800600000000	0.00000000000000	0.11304900000000	0.00000000000000	0.00000000000000	0.00000000000000	0.00000000000000	0.00000000000000	0.00000000000000	0.00000000000000	19.42713400000000	0.00000000000000	0.00000000000000	0.00000000000000	0.00000000000000	
10.47495800000000	45.46366900000000	772.40165600000000	54.48826800000000	0.27722600000000	0.00000000000000	0.11299900000000	0.00000000000000	0.00000000000000	0.00000000000000	0.00000000000000	0.00000000000000	0.00000000000000	0.00000000000000	19.46147400000000	0.00000000000000	0.00000000000000	0.00000000000000	0.00000000000000	
10.47662600000000	44.96630000000000	773.92038400000001	54.53672500000000	0.27646600000000	0.00000000000000	0.11294700000000	0.00000000000000	0.00000000000000	0.00000000000000	0.00000000000000	0.00000000000000	0.00000000000000	0.00000000000000	19.49148300000000	0.00000000000000	0.00000000000000	0.00000000000000	0.00000000000000	
10.47829300000000	44.47647300000000	775.31853400000000	54.57584500000000	0.27572500000000	0.00000000000000	0.11289300000000	0.00000000000000	0.00000000000000	0.00000000000000	0.00000000000000	0.00000000000000	0.00000000000000	0.00000000000000	19.51702200000000	0.00000000000000	0.00000000000000	0.00000000000000	0.00000000000000	
10.47996100000000	43.99416100000000	776.59549900000002	54.60538700000000	0.27500200000000	0.00000000000000	0.11283800000000	0.00000000000000	0.00000000000000	0.00000000000000	0.00000000000000	0.00000000000000	0.00000000000000	0.00000000000000	19.53795400000000	0.00000000000000	0.00000000000000	0.00000000000000	0.00000000000000	
10.48162700000000	43.51926500000000	777.75079800000003	54.62511300000000	0.27429400000000	0.00000000000000	0.11278200000000	0.00000000000000	0.00000000000000	0.00000000000000	0.00000000000000	0.00000000000000	0.00000000000000	0.00000000000000	19.55414400000000	0.00000000000000	0.00000000000000	0.00000000000000	0.00000000000000	
10.48329400000000	43.05162200000000	778.78408400000001	54.63478800000000	0.27360000000000	0.00000000000000	0.11272400000000	0.00000000000000	0.00000000000000	0.00000000000000	0.00000000000000	0.00000000000000	0.00000000000000	0.00000000000000	19.56546600000000	0.00000000000000	0.00000000000000	0.00000000000000	0.00000000000000	
10.48496400000000	42.59100600000000	779.69515400000000	54.63418400000000	0.27291800000000	0.00000000000000	0.11266400000000	0.00000000000000	0.00000000000000	0.00000000000000	0.00000000000000	0.00000000000000	0.00000000000000	0.00000000000000	19.57179600000000	0.00000000000000	0.00000000000000	0.00000000000000	0.00000000000000	
10.48662700000000	42.13713300000000	780.48395900000003	54.62308800000000	0.27224700000000	0.00000000000000	0.11260400000000	0.00000000000000	0.00000000000000	0.00000000000000	0.00000000000000	0.00000000000000	0.00000000000000	0.00000000000000	19.57302500000000	0.00000000000000	0.00000000000000	0.00000000000000	0.00000000000000	
10.48829100000000	41.68967100000000	781.15061100000003	54.60130400000000	0.27158400000000	0.00000000000000	0.11254200000000	0.00000000000000	0.00000000000000	0.00000000000000	0.00000000000000	0.00000000000000	0.00000000000000	0.00000000000000	19.56905000000000	0.00000000000000	0.00000000000000	0.00000000000000	0.00000000000000	
10.48998000000000	41.24824100000000	781.69538799999998	54.56865500000000	0.27092800000000	0.00000000000000	0.11247800000000	0.00000000000000	0.00000000000000	0.00000000000000	0.00000000000000	0.00000000000000	0.00000000000000	0.00000000000000	19.55978600000000	0.00000000000000	0.00000000000000	0.00000000000000	0.00000000000000	
10.49162700000000	40.81242200000000	782.11874499999999	54.52499000000000	0.27027700000000	0.00000000000000	0.11241400000000	0.00000000000000	0.00000000000000	0.00000000000000	0.00000000000000	0.00000000000000	0.00000000000000	0.00000000000000	19.54515800000000	0.00000000000000	0.00000000000000	0.00000000000000	0.00000000000000	
10.49329000000000	40.38175900000000	782.42131500000005	54.47018200000000	0.26962900000000	0.00000000000000	0.11234900000000	0.00000000000000	0.00000000000000	0.00000000000000	0.00000000000000	0.00000000000000	0.00000000000000	0.00000000000000	19.52511100000000	0.00000000000000	0.00000000000000	0.00000000000000	0.00000000000000	
10.49497400000000	39.95576900000000	782.60391500000003	54.40413900000000	0.26898200000000	0.00000000000000	0.11228300000000	0.00000000000000	0.00000000000000	0.00000000000000	0.00000000000000	0.00000000000000	0.00000000000000	0.00000000000000	19.49960400000000	0.00000000000000	0.00000000000000	0.00000000000000	0.00000000000000	
10.49662800000000	39.53394200000000	782.66755400000000	54.32679700000000	0.26833400000000	0.00000000000000	0.11221600000000	0.00000000000000	0.00000000000000	0.00000000000000	0.00000000000000	0.00000000000000	0.00000000000000	0.00000000000000	19.46861700000000	0.00000000000000	0.00000000000000	0.00000000000000	0.00000000000000	
10.49829500000000	39.11575400000000	782.61342900000000	54.23812900000000	0.26768400000000	0.00000000000000	0.11214800000000	0.00000000000000	0.00000000000000	0.00000000000000	0.00000000000000	0.00000000000000	0.00000000000000	0.00000000000000	19.43214700000000	0.00000000000000	0.00000000000000	0.00000000000000	0.00000000000000	
